<mxfile host="app.diagrams.net" modified="2023-10-13T14:28:15.267Z" agent="Mozilla/5.0 (Windows NT 10.0; Win64; x64) AppleWebKit/537.36 (KHTML, like Gecko) Chrome/117.0.0.0 Safari/537.36" version="22.0.4" etag="0xKS_zSKJJl0i17vX9Xn" type="github">
  <diagram name="PÃ¡gina-1" id="gQ8KJBxwYr7MsjFpWVNr">
    <mxGraphModel>
      <root>
        <mxCell id="0" />
        <mxCell id="1" parent="0" />
      </root>
    </mxGraphModel>
  </diagram>
</mxfile>
